<svg width="546" height="253" viewBox="0 0 546 253" fill="none" xmlns="http://www.w3.org/2000/svg">
<rect width="546" height="253" rx="10" fill="url(#paint0_radial_854_6206)"/>
<rect x="81" y="80" width="384" height="75" rx="19" fill="url(#paint1_linear_854_6206)"/>
<rect x="81" y="80" width="384" height="75" rx="19" stroke="url(#paint2_linear_854_6206)" stroke-width="2"/>
<path d="M117.735 113.577C117.522 112.909 117.236 112.311 116.876 111.783C116.524 111.247 116.102 110.792 115.61 110.418C115.118 110.036 114.557 109.746 113.926 109.548C113.302 109.35 112.616 109.251 111.867 109.251C110.598 109.251 109.453 109.577 108.433 110.23C107.412 110.884 106.605 111.841 106.011 113.104C105.424 114.359 105.13 115.896 105.13 117.716C105.13 119.544 105.427 121.089 106.022 122.351C106.616 123.613 107.431 124.571 108.466 125.224C109.5 125.877 110.678 126.204 111.999 126.204C113.225 126.204 114.293 125.954 115.203 125.455C116.12 124.956 116.828 124.252 117.327 123.342C117.834 122.424 118.087 121.345 118.087 120.105L118.968 120.27H112.517V117.463H121.379V120.028C121.379 121.922 120.975 123.565 120.168 124.96C119.368 126.347 118.259 127.418 116.843 128.174C115.434 128.93 113.819 129.308 111.999 129.308C109.959 129.308 108.168 128.839 106.627 127.899C105.093 126.96 103.897 125.628 103.038 123.903C102.18 122.171 101.75 120.116 101.75 117.738C101.75 115.94 102 114.326 102.499 112.895C102.998 111.463 103.699 110.249 104.602 109.251C105.512 108.245 106.579 107.478 107.805 106.95C109.038 106.414 110.385 106.146 111.845 106.146C113.063 106.146 114.197 106.326 115.247 106.686C116.304 107.045 117.243 107.555 118.065 108.216C118.894 108.876 119.58 109.662 120.124 110.572C120.667 111.474 121.034 112.476 121.224 113.577H117.735ZM136.144 121.988V112.091H139.446V129H136.21V126.072H136.034C135.645 126.974 135.021 127.727 134.162 128.328C133.311 128.923 132.25 129.22 130.981 129.22C129.895 129.22 128.933 128.982 128.097 128.505C127.267 128.02 126.614 127.305 126.137 126.358C125.667 125.411 125.432 124.241 125.432 122.846V112.091H128.724V122.45C128.724 123.602 129.043 124.52 129.682 125.202C130.32 125.885 131.15 126.226 132.17 126.226C132.786 126.226 133.399 126.072 134.008 125.763C134.625 125.455 135.135 124.989 135.538 124.365C135.949 123.742 136.151 122.949 136.144 121.988ZM143.869 129V112.091H147.161V129H143.869ZM145.531 109.482C144.959 109.482 144.467 109.291 144.056 108.909C143.652 108.52 143.451 108.058 143.451 107.522C143.451 106.979 143.652 106.517 144.056 106.135C144.467 105.746 144.959 105.552 145.531 105.552C146.104 105.552 146.592 105.746 146.995 106.135C147.406 106.517 147.612 106.979 147.612 107.522C147.612 108.058 147.406 108.52 146.995 108.909C146.592 109.291 146.104 109.482 145.531 109.482ZM157.919 129.33C156.554 129.33 155.335 128.982 154.264 128.284C153.2 127.58 152.363 126.578 151.754 125.279C151.152 123.973 150.851 122.406 150.851 120.578C150.851 118.751 151.156 117.188 151.765 115.889C152.381 114.59 153.225 113.595 154.297 112.906C155.368 112.216 156.583 111.871 157.941 111.871C158.99 111.871 159.834 112.047 160.473 112.399C161.118 112.744 161.617 113.148 161.97 113.61C162.329 114.072 162.608 114.48 162.806 114.832H163.005V106.455H166.296V129H163.082V126.369H162.806C162.608 126.729 162.322 127.14 161.948 127.602C161.581 128.064 161.074 128.468 160.429 128.813C159.783 129.158 158.946 129.33 157.919 129.33ZM158.645 126.523C159.592 126.523 160.392 126.274 161.045 125.775C161.706 125.268 162.205 124.567 162.542 123.672C162.887 122.777 163.06 121.734 163.06 120.545C163.06 119.371 162.891 118.344 162.553 117.463C162.216 116.582 161.72 115.896 161.067 115.404C160.414 114.913 159.607 114.667 158.645 114.667C157.654 114.667 156.829 114.924 156.168 115.438C155.508 115.951 155.009 116.652 154.671 117.54C154.341 118.428 154.176 119.43 154.176 120.545C154.176 121.676 154.344 122.692 154.682 123.595C155.02 124.498 155.519 125.213 156.179 125.741C156.847 126.263 157.669 126.523 158.645 126.523ZM178.282 129.341C176.616 129.341 175.181 128.985 173.977 128.273C172.781 127.554 171.856 126.545 171.203 125.246C170.557 123.94 170.234 122.41 170.234 120.656C170.234 118.924 170.557 117.397 171.203 116.076C171.856 114.755 172.766 113.724 173.933 112.983C175.107 112.241 176.48 111.871 178.05 111.871C179.004 111.871 179.929 112.029 180.825 112.344C181.72 112.66 182.524 113.155 183.235 113.83C183.947 114.505 184.509 115.382 184.92 116.461C185.331 117.533 185.536 118.835 185.536 120.369V121.536H172.095V119.07H182.311C182.311 118.204 182.135 117.437 181.782 116.77C181.43 116.094 180.935 115.562 180.296 115.173C179.665 114.784 178.924 114.59 178.072 114.59C177.148 114.59 176.34 114.817 175.651 115.272C174.968 115.72 174.44 116.307 174.065 117.034C173.698 117.753 173.515 118.535 173.515 119.379V121.305C173.515 122.435 173.713 123.397 174.109 124.189C174.513 124.982 175.074 125.587 175.794 126.006C176.513 126.417 177.353 126.622 178.315 126.622C178.938 126.622 179.507 126.534 180.021 126.358C180.535 126.174 180.979 125.903 181.353 125.543C181.727 125.184 182.013 124.74 182.212 124.211L185.327 124.773C185.078 125.69 184.63 126.494 183.984 127.184C183.346 127.866 182.542 128.398 181.573 128.78C180.612 129.154 179.515 129.341 178.282 129.341ZM195.518 129.33C194.153 129.33 192.935 128.982 191.863 128.284C190.799 127.58 189.963 126.578 189.353 125.279C188.752 123.973 188.451 122.406 188.451 120.578C188.451 118.751 188.755 117.188 189.364 115.889C189.981 114.59 190.825 113.595 191.896 112.906C192.968 112.216 194.182 111.871 195.54 111.871C196.59 111.871 197.434 112.047 198.072 112.399C198.718 112.744 199.217 113.148 199.569 113.61C199.929 114.072 200.208 114.48 200.406 114.832H200.604V106.455H203.896V129H200.681V126.369H200.406C200.208 126.729 199.922 127.14 199.547 127.602C199.18 128.064 198.674 128.468 198.028 128.813C197.382 129.158 196.546 129.33 195.518 129.33ZM196.245 126.523C197.191 126.523 197.991 126.274 198.645 125.775C199.305 125.268 199.804 124.567 200.142 123.672C200.487 122.777 200.659 121.734 200.659 120.545C200.659 119.371 200.49 118.344 200.153 117.463C199.815 116.582 199.32 115.896 198.667 115.404C198.013 114.913 197.206 114.667 196.245 114.667C195.254 114.667 194.428 114.924 193.768 115.438C193.107 115.951 192.608 116.652 192.271 117.54C191.94 118.428 191.775 119.43 191.775 120.545C191.775 121.676 191.944 122.692 192.282 123.595C192.619 124.498 193.118 125.213 193.779 125.741C194.447 126.263 195.269 126.523 196.245 126.523ZM229.358 112.377C229.241 111.335 228.757 110.528 227.905 109.955C227.054 109.375 225.982 109.086 224.691 109.086C223.766 109.086 222.966 109.232 222.291 109.526C221.616 109.812 221.091 110.208 220.717 110.715C220.35 111.214 220.166 111.783 220.166 112.421C220.166 112.957 220.291 113.419 220.541 113.808C220.797 114.197 221.131 114.524 221.542 114.788C221.961 115.045 222.408 115.261 222.885 115.438C223.362 115.606 223.821 115.746 224.261 115.856L226.463 116.428C227.182 116.604 227.92 116.843 228.676 117.144C229.432 117.445 230.133 117.841 230.778 118.333C231.424 118.824 231.945 119.434 232.342 120.16C232.745 120.887 232.947 121.756 232.947 122.769C232.947 124.046 232.617 125.18 231.956 126.171C231.303 127.162 230.353 127.943 229.105 128.516C227.865 129.088 226.364 129.374 224.603 129.374C222.915 129.374 221.454 129.106 220.221 128.571C218.988 128.035 218.023 127.275 217.326 126.292C216.629 125.301 216.244 124.127 216.17 122.769H219.583C219.649 123.584 219.913 124.263 220.375 124.806C220.845 125.342 221.443 125.741 222.17 126.006C222.904 126.263 223.707 126.391 224.581 126.391C225.542 126.391 226.397 126.241 227.146 125.94C227.902 125.631 228.496 125.206 228.929 124.663C229.362 124.112 229.579 123.47 229.579 122.736C229.579 122.068 229.388 121.522 229.006 121.096C228.632 120.67 228.122 120.318 227.476 120.039C226.837 119.76 226.115 119.514 225.307 119.301L222.643 118.575C220.838 118.083 219.407 117.36 218.35 116.406C217.3 115.452 216.776 114.19 216.776 112.619C216.776 111.32 217.128 110.186 217.832 109.218C218.537 108.249 219.491 107.497 220.695 106.961C221.898 106.418 223.256 106.146 224.768 106.146C226.294 106.146 227.641 106.414 228.808 106.95C229.982 107.486 230.907 108.223 231.582 109.163C232.257 110.095 232.61 111.166 232.639 112.377H229.358ZM244.036 129.341C242.37 129.341 240.935 128.985 239.731 128.273C238.535 127.554 237.61 126.545 236.957 125.246C236.311 123.94 235.988 122.41 235.988 120.656C235.988 118.924 236.311 117.397 236.957 116.076C237.61 114.755 238.52 113.724 239.687 112.983C240.861 112.241 242.234 111.871 243.804 111.871C244.758 111.871 245.683 112.029 246.578 112.344C247.474 112.66 248.277 113.155 248.989 113.83C249.701 114.505 250.263 115.382 250.674 116.461C251.085 117.533 251.29 118.835 251.29 120.369V121.536H237.849V119.07H248.065C248.065 118.204 247.888 117.437 247.536 116.77C247.184 116.094 246.689 115.562 246.05 115.173C245.419 114.784 244.678 114.59 243.826 114.59C242.902 114.59 242.094 114.817 241.404 115.272C240.722 115.72 240.194 116.307 239.819 117.034C239.452 117.753 239.269 118.535 239.269 119.379V121.305C239.269 122.435 239.467 123.397 239.863 124.189C240.267 124.982 240.828 125.587 241.548 126.006C242.267 126.417 243.107 126.622 244.069 126.622C244.692 126.622 245.261 126.534 245.775 126.358C246.289 126.174 246.733 125.903 247.107 125.543C247.481 125.184 247.767 124.74 247.966 124.211L251.081 124.773C250.831 125.69 250.384 126.494 249.738 127.184C249.099 127.866 248.296 128.398 247.327 128.78C246.366 129.154 245.268 129.341 244.036 129.341ZM259.863 129.374C258.792 129.374 257.823 129.176 256.957 128.78C256.091 128.376 255.405 127.793 254.898 127.029C254.399 126.266 254.15 125.33 254.15 124.222C254.15 123.268 254.333 122.483 254.7 121.866C255.067 121.25 255.562 120.762 256.186 120.402C256.81 120.043 257.507 119.771 258.278 119.588C259.048 119.404 259.834 119.265 260.634 119.169C261.646 119.052 262.468 118.957 263.1 118.883C263.731 118.802 264.189 118.674 264.476 118.498C264.762 118.322 264.905 118.036 264.905 117.639V117.562C264.905 116.601 264.633 115.856 264.09 115.327C263.555 114.799 262.755 114.535 261.69 114.535C260.582 114.535 259.709 114.781 259.07 115.272C258.439 115.757 258.003 116.296 257.76 116.891L254.667 116.186C255.034 115.159 255.57 114.329 256.274 113.698C256.986 113.06 257.804 112.597 258.729 112.311C259.654 112.018 260.626 111.871 261.646 111.871C262.322 111.871 263.037 111.951 263.793 112.113C264.556 112.267 265.268 112.553 265.929 112.972C266.597 113.39 267.143 113.988 267.569 114.766C267.995 115.537 268.207 116.538 268.207 117.771V129H264.993V126.688H264.861C264.648 127.114 264.329 127.532 263.903 127.943C263.477 128.354 262.931 128.695 262.263 128.967C261.595 129.239 260.795 129.374 259.863 129.374ZM260.579 126.732C261.489 126.732 262.267 126.552 262.912 126.193C263.566 125.833 264.061 125.364 264.399 124.784C264.743 124.197 264.916 123.569 264.916 122.901V120.722C264.799 120.839 264.571 120.949 264.233 121.052C263.903 121.147 263.525 121.232 263.1 121.305C262.674 121.371 262.259 121.433 261.856 121.492C261.452 121.544 261.114 121.588 260.843 121.624C260.204 121.705 259.621 121.841 259.092 122.032C258.571 122.222 258.153 122.498 257.837 122.857C257.529 123.21 257.375 123.679 257.375 124.266C257.375 125.081 257.676 125.697 258.278 126.116C258.88 126.527 259.647 126.732 260.579 126.732ZM272.592 129V112.091H275.773V114.777H275.949C276.257 113.867 276.801 113.151 277.578 112.63C278.364 112.102 279.252 111.838 280.243 111.838C280.448 111.838 280.69 111.845 280.969 111.86C281.255 111.874 281.479 111.893 281.641 111.915V115.063C281.509 115.027 281.274 114.986 280.936 114.942C280.598 114.891 280.261 114.865 279.923 114.865C279.145 114.865 278.452 115.03 277.843 115.36C277.241 115.683 276.764 116.135 276.412 116.714C276.059 117.287 275.883 117.94 275.883 118.674V129H272.592ZM291.006 129.341C289.37 129.341 287.96 128.971 286.779 128.229C285.605 127.481 284.702 126.45 284.071 125.136C283.44 123.822 283.124 122.318 283.124 120.623C283.124 118.905 283.447 117.39 284.093 116.076C284.739 114.755 285.649 113.724 286.823 112.983C287.997 112.241 289.381 111.871 290.973 111.871C292.257 111.871 293.402 112.109 294.408 112.586C295.413 113.056 296.224 113.717 296.841 114.568C297.464 115.419 297.835 116.414 297.953 117.551H294.749C294.573 116.759 294.169 116.076 293.538 115.504C292.914 114.931 292.078 114.645 291.028 114.645C290.111 114.645 289.307 114.887 288.617 115.371C287.935 115.848 287.403 116.531 287.021 117.419C286.639 118.3 286.449 119.342 286.449 120.545C286.449 121.778 286.636 122.843 287.01 123.738C287.384 124.633 287.913 125.327 288.595 125.819C289.285 126.31 290.096 126.556 291.028 126.556C291.652 126.556 292.217 126.442 292.723 126.215C293.237 125.98 293.667 125.646 294.011 125.213C294.364 124.78 294.61 124.259 294.749 123.65H297.953C297.835 124.743 297.479 125.719 296.885 126.578C296.29 127.437 295.494 128.112 294.496 128.604C293.505 129.095 292.342 129.341 291.006 129.341ZM304.764 118.96V129H301.472V106.455H304.72V114.843H304.929C305.325 113.933 305.931 113.21 306.746 112.674C307.56 112.139 308.624 111.871 309.938 111.871C311.098 111.871 312.11 112.109 312.976 112.586C313.85 113.063 314.525 113.775 315.002 114.722C315.486 115.661 315.729 116.836 315.729 118.245V129H312.437V118.641C312.437 117.401 312.118 116.439 311.479 115.757C310.841 115.067 309.953 114.722 308.815 114.722C308.037 114.722 307.34 114.887 306.724 115.217C306.114 115.548 305.634 116.032 305.281 116.67C304.936 117.302 304.764 118.065 304.764 118.96Z" fill="#97854E"/>
<rect x="406.598" y="100.583" width="38.9027" height="33.834" rx="16.917" fill="url(#paint3_linear_854_6206)"/>
<rect x="406.598" y="100.583" width="38.9027" height="33.834" rx="16.917" stroke="url(#paint4_linear_854_6206)"/>
<mask id="path-5-outside-1_854_6206" maskUnits="userSpaceOnUse" x="418.033" y="109.019" width="16.0314" height="16.9626" fill="black">
<rect fill="white" x="418.033" y="109.019" width="16.0314" height="16.9626"/>
<path d="M431.51 124.88L426.908 119.21C426.488 119.547 426.014 119.798 425.486 119.963C424.958 120.127 424.434 120.192 423.914 120.157C422.647 120.073 421.605 119.529 420.79 118.525C419.974 117.521 419.612 116.337 419.703 114.972C419.794 113.606 420.31 112.48 421.25 111.592C422.191 110.704 423.295 110.302 424.563 110.385C425.831 110.469 426.873 111.013 427.689 112.019C428.505 113.024 428.868 114.209 428.777 115.574C428.737 116.166 428.602 116.733 428.37 117.274C428.138 117.815 427.851 118.272 427.507 118.645L432.109 124.313L431.51 124.88ZM423.972 119.304C425.022 119.374 425.935 119.044 426.71 118.314C427.485 117.583 427.911 116.652 427.986 115.52C428.061 114.389 427.764 113.41 427.092 112.584C426.421 111.757 425.56 111.309 424.51 111.238C423.46 111.168 422.547 111.498 421.771 112.229C420.995 112.96 420.57 113.89 420.495 115.021C420.42 116.151 420.718 117.13 421.389 117.958C422.06 118.785 422.92 119.234 423.971 119.303"/>
</mask>
<path d="M431.51 124.88L426.908 119.21C426.488 119.547 426.014 119.798 425.486 119.963C424.958 120.127 424.434 120.192 423.914 120.157C422.647 120.073 421.605 119.529 420.79 118.525C419.974 117.521 419.612 116.337 419.703 114.972C419.794 113.606 420.31 112.48 421.25 111.592C422.191 110.704 423.295 110.302 424.563 110.385C425.831 110.469 426.873 111.013 427.689 112.019C428.505 113.024 428.868 114.209 428.777 115.574C428.737 116.166 428.602 116.733 428.37 117.274C428.138 117.815 427.851 118.272 427.507 118.645L432.109 124.313L431.51 124.88ZM423.972 119.304C425.022 119.374 425.935 119.044 426.71 118.314C427.485 117.583 427.911 116.652 427.986 115.52C428.061 114.389 427.764 113.41 427.092 112.584C426.421 111.757 425.56 111.309 424.51 111.238C423.46 111.168 422.547 111.498 421.771 112.229C420.995 112.96 420.57 113.89 420.495 115.021C420.42 116.151 420.718 117.13 421.389 117.958C422.06 118.785 422.92 119.234 423.971 119.303" fill="#97854E"/>
<path d="M431.51 124.88L431.277 125.069L431.481 125.32L431.716 125.098L431.51 124.88ZM426.908 119.21L427.141 119.021L426.953 118.79L426.72 118.976L426.908 119.21ZM423.914 120.157L423.934 119.858L423.914 120.157ZM427.507 118.645L427.287 118.442L427.111 118.633L427.274 118.834L427.507 118.645ZM432.109 124.313L432.315 124.531L432.517 124.34L432.342 124.124L432.109 124.313ZM431.51 124.88L431.743 124.691L427.141 119.021L426.908 119.21L426.675 119.4L431.277 125.069L431.51 124.88ZM426.908 119.21L426.72 118.976C426.33 119.289 425.89 119.522 425.397 119.676L425.486 119.963L425.575 120.249C426.138 120.073 426.646 119.805 427.096 119.445L426.908 119.21ZM425.486 119.963L425.397 119.676C424.902 119.83 424.415 119.89 423.934 119.858L423.914 120.157L423.894 120.457C424.453 120.494 425.014 120.424 425.575 120.249L425.486 119.963ZM423.914 120.157L423.934 119.858C422.751 119.779 421.786 119.276 421.023 118.336L420.79 118.525L420.557 118.714C421.424 119.781 422.542 120.367 423.894 120.457L423.914 120.157ZM420.79 118.525L421.023 118.336C420.258 117.395 419.916 116.286 420.003 114.991L419.703 114.972L419.404 114.952C419.308 116.388 419.691 117.648 420.557 118.714L420.79 118.525ZM419.703 114.972L420.003 114.991C420.089 113.697 420.574 112.643 421.456 111.81L421.25 111.592L421.044 111.374C420.046 112.317 419.5 113.516 419.404 114.952L419.703 114.972ZM421.25 111.592L421.456 111.81C422.337 110.978 423.36 110.607 424.543 110.685L424.563 110.385L424.583 110.086C423.23 109.997 422.044 110.43 421.044 111.374L421.25 111.592ZM424.563 110.385L424.543 110.685C425.726 110.762 426.691 111.266 427.456 112.208L427.689 112.019L427.922 111.83C427.054 110.761 425.936 110.175 424.583 110.086L424.563 110.385ZM427.689 112.019L427.456 112.208C428.222 113.151 428.564 114.26 428.478 115.554L428.777 115.574L429.076 115.594C429.172 114.158 428.789 112.898 427.922 111.83L427.689 112.019ZM428.777 115.574L428.478 115.554C428.44 116.113 428.313 116.646 428.094 117.156L428.37 117.274L428.646 117.392C428.891 116.82 429.034 116.22 429.076 115.594L428.777 115.574ZM428.37 117.274L428.094 117.156C427.874 117.671 427.604 118.098 427.287 118.442L427.507 118.645L427.728 118.848C428.098 118.447 428.403 117.96 428.646 117.392L428.37 117.274ZM427.507 118.645L427.274 118.834L431.876 124.502L432.109 124.313L432.342 124.124L427.74 118.456L427.507 118.645ZM432.109 124.313L431.903 124.095L431.304 124.662L431.51 124.88L431.716 125.098L432.315 124.531L432.109 124.313ZM423.972 119.304L423.952 119.603C425.087 119.679 426.081 119.319 426.916 118.532L426.71 118.314L426.504 118.095C425.789 118.769 424.958 119.069 423.992 119.005L423.972 119.304ZM426.71 118.314L426.916 118.532C427.75 117.746 428.205 116.742 428.285 115.54L427.986 115.52L427.687 115.5C427.616 116.562 427.221 117.42 426.504 118.095L426.71 118.314ZM427.986 115.52L428.285 115.54C428.365 114.339 428.048 113.284 427.325 112.394L427.092 112.584L426.859 112.773C427.48 113.536 427.757 114.439 427.687 115.5L427.986 115.52ZM427.092 112.584L427.325 112.394C426.602 111.504 425.665 111.015 424.53 110.939L424.51 111.238L424.49 111.537C425.456 111.602 426.24 112.01 426.859 112.773L427.092 112.584ZM424.51 111.238L424.53 110.939C423.395 110.863 422.401 111.223 421.565 112.01L421.771 112.229L421.977 112.447C422.692 111.772 423.524 111.473 424.49 111.537L424.51 111.238ZM421.771 112.229L421.565 112.01C420.731 112.797 420.275 113.8 420.196 115.001L420.495 115.021L420.795 115.041C420.865 113.981 421.26 113.123 421.977 112.447L421.771 112.229ZM420.495 115.021L420.196 115.001C420.116 116.202 420.434 117.257 421.156 118.147L421.389 117.958L421.622 117.769C421.002 117.004 420.724 116.101 420.795 115.041L420.495 115.021ZM421.389 117.958L421.156 118.147C421.878 119.038 422.816 119.527 423.952 119.603L423.971 119.303L423.991 119.004C423.025 118.94 422.241 118.532 421.622 117.769L421.389 117.958Z" fill="#97854E" mask="url(#path-5-outside-1_854_6206)"/>
<defs>
<radialGradient id="paint0_radial_854_6206" cx="0" cy="0" r="1" gradientTransform="matrix(126 113.056 -243.986 406.203 273 97.1667)" gradientUnits="userSpaceOnUse">
<stop stop-color="#F7F7F7"/>
<stop offset="1" stop-color="#FFFFED"/>
</radialGradient>
<linearGradient id="paint1_linear_854_6206" x1="273" y1="79" x2="273" y2="210" gradientUnits="userSpaceOnUse">
<stop stop-color="#FAFABE"/>
<stop offset="1" stop-color="#F6CA95"/>
</linearGradient>
<linearGradient id="paint2_linear_854_6206" x1="273" y1="156" x2="273" y2="79" gradientUnits="userSpaceOnUse">
<stop stop-color="#F6CA95"/>
<stop offset="1" stop-color="#FAFABE"/>
</linearGradient>
<linearGradient id="paint3_linear_854_6206" x1="432.862" y1="112.275" x2="419.07" y2="133.76" gradientUnits="userSpaceOnUse">
<stop stop-color="#F6CA95"/>
<stop offset="1" stop-color="#F6A441"/>
</linearGradient>
<linearGradient id="paint4_linear_854_6206" x1="435.295" y1="101.389" x2="416.296" y2="135.084" gradientUnits="userSpaceOnUse">
<stop stop-color="#FAF6BA"/>
<stop offset="1" stop-color="#97854E"/>
</linearGradient>
</defs>
</svg>
