<svg width="546" height="253" viewBox="0 0 546 253" fill="none" xmlns="http://www.w3.org/2000/svg">
<rect width="546" height="253" rx="10" fill="url(#paint0_radial_854_6226)"/>
<rect width="546" height="253" rx="10" fill="url(#paint1_radial_854_6226)"/>
<rect x="83.1" y="129.1" width="62.8" height="62.8" rx="11.15" fill="white"/>
<rect x="83.1" y="129.1" width="62.8" height="62.8" rx="11.15" stroke="#245E73" stroke-width="0.2"/>
<path d="M122.45 169.5C120.367 169.5 118.308 169.046 116.275 168.138C114.242 167.23 112.392 165.942 110.725 164.275C109.058 162.608 107.771 160.758 106.863 158.725C105.955 156.692 105.501 154.634 105.5 152.55C105.5 152.25 105.6 152 105.8 151.8C106 151.6 106.25 151.5 106.55 151.5H110.6C110.833 151.5 111.042 151.579 111.225 151.738C111.408 151.897 111.517 152.084 111.55 152.3L112.2 155.8C112.233 156.067 112.225 156.292 112.175 156.475C112.125 156.658 112.033 156.817 111.9 156.95L109.475 159.4C109.808 160.017 110.204 160.612 110.662 161.187C111.12 161.762 111.624 162.316 112.175 162.85C112.692 163.367 113.233 163.846 113.8 164.288C114.367 164.73 114.967 165.134 115.6 165.5L117.95 163.15C118.1 163 118.296 162.888 118.538 162.813C118.78 162.738 119.017 162.717 119.25 162.75L122.7 163.45C122.933 163.517 123.125 163.638 123.275 163.813C123.425 163.988 123.5 164.184 123.5 164.4V168.45C123.5 168.75 123.4 169 123.2 169.2C123 169.4 122.75 169.5 122.45 169.5Z" fill="#245E73"/>
<rect x="238.1" y="129.1" width="62.8" height="62.8" rx="11.15" fill="white"/>
<rect x="238.1" y="129.1" width="62.8" height="62.8" rx="11.15" stroke="#245E73" stroke-width="0.2"/>
<path d="M277.45 169.5C275.367 169.5 273.308 169.046 271.275 168.138C269.242 167.23 267.392 165.942 265.725 164.275C264.058 162.608 262.771 160.758 261.863 158.725C260.955 156.692 260.501 154.634 260.5 152.55C260.5 152.25 260.6 152 260.8 151.8C261 151.6 261.25 151.5 261.55 151.5H265.6C265.833 151.5 266.042 151.579 266.225 151.738C266.408 151.897 266.517 152.084 266.55 152.3L267.2 155.8C267.233 156.067 267.225 156.292 267.175 156.475C267.125 156.658 267.033 156.817 266.9 156.95L264.475 159.4C264.808 160.017 265.204 160.612 265.662 161.187C266.12 161.762 266.624 162.316 267.175 162.85C267.692 163.367 268.233 163.846 268.8 164.288C269.367 164.73 269.967 165.134 270.6 165.5L272.95 163.15C273.1 163 273.296 162.888 273.538 162.813C273.78 162.738 274.017 162.717 274.25 162.75L277.7 163.45C277.933 163.517 278.125 163.638 278.275 163.813C278.425 163.988 278.5 164.184 278.5 164.4V168.45C278.5 168.75 278.4 169 278.2 169.2C278 169.4 277.75 169.5 277.45 169.5Z" fill="#245E73"/>
<rect x="393.1" y="129.1" width="62.8" height="62.8" rx="11.15" fill="white"/>
<rect x="393.1" y="129.1" width="62.8" height="62.8" rx="11.15" stroke="#245E73" stroke-width="0.2"/>
<path d="M432.45 169.5C430.367 169.5 428.308 169.046 426.275 168.138C424.242 167.23 422.392 165.942 420.725 164.275C419.058 162.608 417.771 160.758 416.863 158.725C415.955 156.692 415.501 154.634 415.5 152.55C415.5 152.25 415.6 152 415.8 151.8C416 151.6 416.25 151.5 416.55 151.5H420.6C420.833 151.5 421.042 151.579 421.225 151.738C421.408 151.897 421.517 152.084 421.55 152.3L422.2 155.8C422.233 156.067 422.225 156.292 422.175 156.475C422.125 156.658 422.033 156.817 421.9 156.95L419.475 159.4C419.808 160.017 420.204 160.612 420.662 161.187C421.12 161.762 421.624 162.316 422.175 162.85C422.692 163.367 423.233 163.846 423.8 164.288C424.367 164.73 424.967 165.134 425.6 165.5L427.95 163.15C428.1 163 428.296 162.888 428.538 162.813C428.78 162.738 429.017 162.717 429.25 162.75L432.7 163.45C432.933 163.517 433.125 163.638 433.275 163.813C433.425 163.988 433.5 164.184 433.5 164.4V168.45C433.5 168.75 433.4 169 433.2 169.2C433 169.4 432.75 169.5 432.45 169.5Z" fill="#245E73"/>
<path d="M425 128.012C432.333 104.845 411.6 64.1118 270 86.5118" stroke="#3FA7CC" stroke-width="1.5" stroke-dasharray="5 5"/>
<path d="M115.277 129.012C107.944 105.845 128.677 65.1118 270.277 87.5118" stroke="#3FA7CC" stroke-width="1.5" stroke-dasharray="5 5"/>
<path d="M270 126V0" stroke="#3FA7CC" stroke-width="1.5" stroke-dasharray="5 5"/>
<defs>
<radialGradient id="paint0_radial_854_6226" cx="0" cy="0" r="1" gradientTransform="matrix(326.5 151.222 -242.672 977.497 72.5 59)" gradientUnits="userSpaceOnUse">
<stop stop-color="#F7F7F7"/>
<stop offset="1" stop-color="#EDFAFF"/>
</radialGradient>
<radialGradient id="paint1_radial_854_6226" cx="0" cy="0" r="1" gradientTransform="matrix(126 113.056 -243.986 406.203 273 97.1667)" gradientUnits="userSpaceOnUse">
<stop stop-color="#F7F7F7"/>
<stop offset="1" stop-color="#EDFAFF"/>
</radialGradient>
</defs>
</svg>
